<mxfile host="65bd71144e">
    <diagram name="Page-1" id="75J0okeFCLs4sCw-0bPd">
        <mxGraphModel dx="1124" dy="538" grid="1" gridSize="10" guides="1" tooltips="1" connect="1" arrows="1" fold="1" page="1" pageScale="1" pageWidth="827" pageHeight="1169" math="0" shadow="0">
            <root>
                <mxCell id="0"/>
                <mxCell id="1" parent="0"/>
                <mxCell id="2" value="&lt;b&gt;Usuario&lt;/b&gt;" style="rounded=0;whiteSpace=wrap;html=1;fontSize=12;" parent="1" vertex="1">
                    <mxGeometry x="130" y="134" width="100" height="40" as="geometry"/>
                </mxCell>
                <mxCell id="3" value="&lt;b&gt;Canal&lt;/b&gt;&lt;div style=&quot;font-size: 10px&quot;&gt;Web&lt;/div&gt;" style="rounded=1;whiteSpace=wrap;html=1;fontSize=12;" parent="1" vertex="1">
                    <mxGeometry x="120" y="244" width="120" height="60" as="geometry"/>
                </mxCell>
                <mxCell id="4" value="&lt;b&gt;Bot Framework Service&lt;/b&gt;&lt;div style=&quot;font-size: 10px&quot;&gt;(Azure Cloud)&lt;/div&gt;" style="shape=server;whiteSpace=wrap;html=1;fontSize=12;fillColor=#DAE8FC;strokeColor=#6C8EBF;" parent="1" vertex="1">
                    <mxGeometry x="330" y="244" width="130" height="60" as="geometry"/>
                </mxCell>
                <mxCell id="5" value="&lt;b&gt;Bot Application&lt;/b&gt;&lt;div style=&quot;font-size: 10px&quot;&gt;(ASP.NET Core Web Service)&lt;/div&gt;" style="shape=server;whiteSpace=wrap;html=1;fontSize=12;fillColor=#D5E8D4;strokeColor=#82B366;" parent="1" vertex="1">
                    <mxGeometry x="590" y="244" width="130" height="60" as="geometry"/>
                </mxCell>
                <mxCell id="6" value="&lt;b&gt;Dialog&lt;/b&gt;&lt;div&gt;&lt;b&gt;Manager&lt;/b&gt;&lt;div style=&quot;font-size: 10px&quot;&gt;(WaterfallDialog)&lt;/div&gt;&lt;/div&gt;" style="shape=component;whiteSpace=wrap;html=1;fontSize=12;fillColor=#FFF2CC;strokeColor=#D6B656;" parent="1" vertex="1">
                    <mxGeometry x="580" y="374" width="150" height="60" as="geometry"/>
                </mxCell>
                <mxCell id="7" value="&lt;b&gt;Clasificador&lt;/b&gt;&lt;div style=&quot;font-size: 10px&quot;&gt;(Naive Bayes)&lt;/div&gt;" style="shape=gear;whiteSpace=wrap;html=1;fontSize=12;fillColor=#E1D5E7;strokeColor=#9673A6;" parent="1" vertex="1">
                    <mxGeometry x="600" y="484" width="120" height="60" as="geometry"/>
                </mxCell>
                <mxCell id="8" value="&lt;b&gt;DbContext&lt;/b&gt;&lt;div style=&quot;font-size: 10px&quot;&gt;(Tablas: Intents, Utterances)&lt;/div&gt;" style="shape=cylinder;whiteSpace=wrap;html=1;fontSize=12;fillColor=#f5f5f5;strokeColor=#666666;" parent="1" vertex="1">
                    <mxGeometry x="300" y="475" width="170" height="80" as="geometry"/>
                </mxCell>
                <mxCell id="9" value="Envía&lt;div&gt;mensaje&lt;/div&gt;" style="edgeStyle=none;rounded=0;orthogonalLoop=1;jettySize=auto;html=1;fontSize=10;endArrow=classic;endFill=1;exitX=0.75;exitY=1;exitDx=0;exitDy=0;entryX=0.712;entryY=0.026;entryDx=0;entryDy=0;entryPerimeter=0;" parent="1" source="2" target="3" edge="1">
                    <mxGeometry x="-0.1573" y="25" relative="1" as="geometry">
                        <mxPoint as="offset"/>
                    </mxGeometry>
                </mxCell>
                <mxCell id="10" value="Publica actividad" style="edgeStyle=none;rounded=0;orthogonalLoop=1;jettySize=auto;html=1;fontSize=10;endArrow=classic;endFill=1;exitX=1;exitY=0.25;exitDx=0;exitDy=0;entryX=0;entryY=0.25;entryDx=0;entryDy=0;" parent="1" source="3" target="4" edge="1">
                    <mxGeometry x="0.1111" y="15" relative="1" as="geometry">
                        <mxPoint as="offset"/>
                    </mxGeometry>
                </mxCell>
                <mxCell id="11" value="POST /api/messages" style="edgeStyle=none;rounded=0;orthogonalLoop=1;jettySize=auto;html=1;fontSize=10;endArrow=classic;endFill=1;exitX=1;exitY=0.25;exitDx=0;exitDy=0;entryX=0;entryY=0.25;entryDx=0;entryDy=0;" parent="1" source="4" target="5" edge="1">
                    <mxGeometry x="-0.0769" y="15" relative="1" as="geometry">
                        <mxPoint as="offset"/>
                    </mxGeometry>
                </mxCell>
                <mxCell id="12" value="Enruta&lt;div&gt;actividad&lt;/div&gt;" style="edgeStyle=none;rounded=0;orthogonalLoop=1;jettySize=auto;html=1;fontSize=10;endArrow=classic;endFill=1;exitX=0.75;exitY=1;exitDx=0;exitDy=0;" parent="1" source="5" edge="1">
                    <mxGeometry relative="1" as="geometry">
                        <mxPoint x="688" y="374" as="targetPoint"/>
                    </mxGeometry>
                </mxCell>
                <mxCell id="13" value="Entrenamiento&lt;br&gt;y c&lt;span style=&quot;color: rgb(63, 63, 63); background-color: light-dark(#ffffff, var(--ge-dark-color, #121212));&quot;&gt;lasificación&lt;/span&gt;" style="edgeStyle=none;rounded=0;orthogonalLoop=1;jettySize=auto;html=1;fontSize=10;endArrow=classic;endFill=1;exitX=0.782;exitY=1.007;exitDx=0;exitDy=0;exitPerimeter=0;entryX=0.806;entryY=0.037;entryDx=0;entryDy=0;entryPerimeter=0;" parent="1" source="6" target="7" edge="1">
                    <mxGeometry x="-0.1718" y="41" relative="1" as="geometry">
                        <mxPoint x="697" y="480" as="targetPoint"/>
                        <mxPoint as="offset"/>
                    </mxGeometry>
                </mxCell>
                <mxCell id="14" value="Entity Framework Core" style="edgeStyle=none;rounded=0;orthogonalLoop=1;jettySize=auto;html=1;fontSize=10;endArrow=classic;endFill=1;dashed=1;" parent="1" source="7" target="8" edge="1">
                    <mxGeometry x="-0.0761" y="16" relative="1" as="geometry">
                        <mxPoint as="offset"/>
                    </mxGeometry>
                </mxCell>
                <mxCell id="15" value="Intención&amp;nbsp;&lt;span style=&quot;color: rgb(63, 63, 63); background-color: light-dark(#ffffff, var(--ge-dark-color, #121212));&quot;&gt;por&lt;/span&gt;&lt;div&gt;&lt;span style=&quot;color: rgb(63, 63, 63); background-color: light-dark(#ffffff, var(--ge-dark-color, #121212));&quot;&gt;confidencia&lt;/span&gt;&lt;/div&gt;" style="edgeStyle=none;rounded=0;orthogonalLoop=1;jettySize=auto;html=1;fontSize=10;endArrow=classic;endFill=1;exitX=0.202;exitY=0.026;exitDx=0;exitDy=0;entryX=0.3;entryY=0.997;entryDx=0;entryDy=0;exitPerimeter=0;entryPerimeter=0;" parent="1" source="7" target="6" edge="1">
                    <mxGeometry x="0.2044" y="35" relative="1" as="geometry">
                        <mxPoint as="offset"/>
                    </mxGeometry>
                </mxCell>
                <mxCell id="16" value="Formula&lt;div&gt;respuesta&lt;/div&gt;" style="edgeStyle=none;rounded=0;orthogonalLoop=1;jettySize=auto;html=1;fontSize=10;endArrow=classic;endFill=1;exitX=0.305;exitY=-0.014;exitDx=0;exitDy=0;exitPerimeter=0;" parent="1" source="6" edge="1">
                    <mxGeometry relative="1" as="geometry">
                        <mxPoint x="625" y="304" as="targetPoint"/>
                    </mxGeometry>
                </mxCell>
                <mxCell id="17" value="" style="edgeStyle=none;rounded=0;orthogonalLoop=1;jettySize=auto;html=1;fontSize=10;endArrow=classic;endFill=1;exitX=0;exitY=0.75;exitDx=0;exitDy=0;entryX=1;entryY=0.75;entryDx=0;entryDy=0;" parent="1" source="5" target="4" edge="1">
                    <mxGeometry relative="1" as="geometry"/>
                </mxCell>
                <mxCell id="18" value="" style="edgeStyle=none;rounded=0;orthogonalLoop=1;jettySize=auto;html=1;fontSize=10;endArrow=classic;endFill=1;exitX=0.01;exitY=0.706;exitDx=0;exitDy=0;entryX=0.989;entryY=0.7;entryDx=0;entryDy=0;exitPerimeter=0;entryPerimeter=0;" parent="1" source="4" target="3" edge="1">
                    <mxGeometry relative="1" as="geometry"/>
                </mxCell>
                <mxCell id="19" value="Recibe&lt;div&gt;respuesta&lt;/div&gt;" style="edgeStyle=none;rounded=0;orthogonalLoop=1;jettySize=auto;html=1;fontSize=10;endArrow=classic;endFill=1;exitX=0.283;exitY=0.026;exitDx=0;exitDy=0;entryX=0.25;entryY=1;entryDx=0;entryDy=0;exitPerimeter=0;" parent="1" source="3" target="2" edge="1">
                    <mxGeometry x="0.1516" y="25" relative="1" as="geometry">
                        <mxPoint x="340" y="354" as="sourcePoint"/>
                        <mxPoint x="160" y="304" as="targetPoint"/>
                        <mxPoint as="offset"/>
                    </mxGeometry>
                </mxCell>
                <mxCell id="20" value="&lt;b&gt;Bot conversacional con detección de intención&lt;/b&gt;" style="text;html=1;strokeColor=none;fillColor=none;align=center;verticalAlign=middle;whiteSpace=wrap;rounded=0;fontSize=16;" parent="1" vertex="1">
                    <mxGeometry y="50" width="820" height="30" as="geometry"/>
                </mxCell>
            </root>
        </mxGraphModel>
    </diagram>
</mxfile>